<svg xmlns="http://www.w3.org/2000/svg" viewBox="0 0 260 180">
  <circle cx="75" cy="90" r="18" fill="none" stroke="#333" stroke-width="2"/>
  <text x="75" y="95" text-anchor="middle" font-size="13" font-weight="bold">C</text>
  <circle cx="145" cy="90" r="18" fill="none" stroke="#333" stroke-width="2"/>
  <text x="145" y="95" text-anchor="middle" font-size="13" font-weight="bold">C</text>
  <line x1="93" y1="90" x2="127" y2="90" stroke="#333" stroke-width="1.5"/>
  <circle cx="145" cy="55" r="14" fill="none" stroke="#cc3333" stroke-width="2"/>
  <text x="145" y="60" text-anchor="middle" font-size="11" font-weight="bold" fill="#cc3333">O</text>
  <line x1="145" y1="69" x2="145" y2="72" stroke="#333" stroke-width="2"/>
  <circle cx="190" cy="90" r="14" fill="none" stroke="#cc3333" stroke-width="2"/>
  <text x="190" y="95" text-anchor="middle" font-size="11" font-weight="bold" fill="#cc3333">O</text>
  <line x1="163" y1="90" x2="176" y2="90" stroke="#333" stroke-width="2"/>
  <circle cx="210" cy="90" r="9" fill="none" stroke="#333" stroke-width="1.5"/>
  <text x="210" y="93" text-anchor="middle" font-size="10">H</text>
  <line x1="201" y1="90" x2="199" y2="90" stroke="#333" stroke-width="1.5"/>
  <circle cx="40" cy="90" r="10" fill="none" stroke="#333" stroke-width="1.5"/>
  <text x="40" y="94" text-anchor="middle" font-size="11">H</text>
  <line x1="50" y1="90" x2="57" y2="90" stroke="#333" stroke-width="1.5"/>
  <circle cx="75" cy="58" r="10" fill="none" stroke="#333" stroke-width="1.5"/>
  <text x="75" y="62" text-anchor="middle" font-size="11">H</text>
  <line x1="75" y1="68" x2="75" y2="72" stroke="#333" stroke-width="1.5"/>
  <circle cx="75" cy="122" r="10" fill="none" stroke="#333" stroke-width="1.5"/>
  <text x="75" y="126" text-anchor="middle" font-size="11">H</text>
  <line x1="75" y1="112" x2="75" y2="108" stroke="#333" stroke-width="1.5"/>
</svg>