<svg xmlns="http://www.w3.org/2000/svg" viewBox="0 0 260 160">
  <circle cx="75" cy="80" r="18" fill="none" stroke="#333" stroke-width="2"/>
  <text x="75" y="85" text-anchor="middle" font-size="13" font-weight="bold">C</text>
  <circle cx="150" cy="80" r="18" fill="none" stroke="#333" stroke-width="2"/>
  <text x="150" y="85" text-anchor="middle" font-size="13" font-weight="bold">C</text>
  <line x1="93" y1="80" x2="132" y2="80" stroke="#333" stroke-width="2"/>
  <circle cx="195" cy="80" r="15" fill="none" stroke="#cc3333" stroke-width="2"/>
  <text x="195" y="85" text-anchor="middle" font-size="11" font-weight="bold" fill="#cc3333">O</text>
  <line x1="168" y1="80" x2="180" y2="80" stroke="#333" stroke-width="1.5"/>
  <circle cx="195" cy="56" r="9" fill="none" stroke="#333" stroke-width="1.5"/>
  <text x="195" y="59" text-anchor="middle" font-size="10">H</text>
  <line x1="195" y1="65" x2="195" y2="65" stroke="#333" stroke-width="1.5"/>
  <circle cx="40" cy="80" r="10" fill="none" stroke="#333" stroke-width="1.5"/>
  <text x="40" y="84" text-anchor="middle" font-size="11">H</text>
  <line x1="50" y1="80" x2="57" y2="80" stroke="#333" stroke-width="1.5"/>
  <circle cx="75" cy="48" r="10" fill="none" stroke="#333" stroke-width="1.5"/>
  <text x="75" y="52" text-anchor="middle" font-size="11">H</text>
  <line x1="75" y1="58" x2="75" y2="62" stroke="#333" stroke-width="1.5"/>
  <circle cx="75" cy="112" r="10" fill="none" stroke="#333" stroke-width="1.5"/>
  <text x="75" y="116" text-anchor="middle" font-size="11">H</text>
  <line x1="75" y1="102" x2="75" y2="98" stroke="#333" stroke-width="1.5"/>
  <circle cx="150" cy="48" r="10" fill="none" stroke="#333" stroke-width="1.5"/>
  <text x="150" y="52" text-anchor="middle" font-size="11">H</text>
  <line x1="150" y1="58" x2="150" y2="62" stroke="#333" stroke-width="1.5"/>
  <circle cx="150" cy="112" r="10" fill="none" stroke="#333" stroke-width="1.5"/>
  <text x="150" y="116" text-anchor="middle" font-size="11">H</text>
  <line x1="150" y1="102" x2="150" y2="98" stroke="#333" stroke-width="1.5"/>
</svg>